<svg id="0a271d9c-032b-48c4-8f97-eac704e1a141" data-name="圖層 1" xmlns="http://www.w3.org/2000/svg" viewBox="0 0 972.28346 467.71654"><title>Background photo of product 2</title><rect width="972.28346" height="467.71654" style="fill:#b5b5b6"/><path d="M486.14173,76.89664S356.03148,85.11557,356.03148,230.708v129.1546H486.14173Z" style="fill:#231815;stroke:#231815;stroke-miterlimit:10"/><path d="M486.14173,76.89664S616.252,85.11557,616.252,230.708v129.1546H486.14173Z" style="fill:#231815;stroke:#231815;stroke-miterlimit:10"/><path d="M372.59754,628.55079V456.391S365.29,270.21943,486.14173,270.21943,599.68592,449.38511,599.68592,449.38511l.08506,179.16568Z" style="fill:#727171"/><circle cx="486.14173" cy="205.28308" r="113.54419" style="fill:#727171;stroke:#231815;stroke-miterlimit:10;stroke-width:5px"/><path d="M386.70878,150.433H585.57469s-26.57495-58.69411-99.433-58.69411S386.70878,150.433,386.70878,150.433Z" style="fill:#231815;stroke:#231815;stroke-miterlimit:10"/><path d="M485.61383,181.87383c22.34375,0,37.10938,12.42188,37.10938,30.46875,0,11.71875-5.70312,19.92188-16.71875,26.40625-10.39062,6.01563-13.28125,9.84375-13.28125,17.34375v4.14063H472.02008l-.15625-4.29687c-1.01562-12.5,3.28125-19.53125,14.0625-25.85937,10.07813-6.01562,13.125-9.76562,13.125-17.03125s-5.9375-12.42187-14.84375-12.42187c-8.98437,0-14.92187,5.54688-15.39062,14.14063H447.64508C448.0357,195.31133,461.62945,181.87383,485.61383,181.87383ZM468.9732,284.68633c0-8.28125,5.46875-13.35937,14.21875-13.35937s14.14063,5.07813,14.14063,13.35938c0,8.20313-5.39062,13.28125-14.14062,13.28125S468.9732,292.88946,468.9732,284.68633Z" style="fill:#b5b5b6"/><rect width="972.28346" height="467.71654" style="fill:#231815;opacity:0.2"/></svg>